<?xml version="1.0" standalone="no"?>
<!DOCTYPE svg PUBLIC "-//W3C//DTD SVG 20010904//EN"
 "http://www.w3.org/TR/2001/REC-SVG-20010904/DTD/svg10.dtd">
<svg version="1.0" xmlns="http://www.w3.org/2000/svg"
 width="48.000000pt" height="48.000000pt" viewBox="0 0 512.000000 512.000000"
 preserveAspectRatio="xMidYMid meet">

<g transform="translate(0.000000,512.000000) scale(0.100000,-0.100000)"
fill="#000000" stroke="none">
<path d="M895 5105 c-195 -42 -370 -200 -436 -392 l-24 -68 0 -2085 0 -2085
24 -68 c50 -147 167 -278 308 -347 130 -63 22 -60 2036 -60 l1838 0 24 25 25
24 0 2511 0 2511 -25 24 -24 25 -1843 -1 c-1479 0 -1855 -3 -1903 -14z m3625
-2035 l0 -1880 -1705 0 -1705 0 0 1880 0 1880 1705 0 1705 0 0 -1880z m-3580
-5 l0 -1875 -27 -5 c-101 -22 -188 -64 -265 -127 l-48 -39 0 1784 c0 1760 0
1786 20 1850 37 121 141 229 260 270 25 9 48 16 53 17 4 0 7 -844 7 -1875z
m3580 -2130 l0 -85 -998 0 -999 0 -20 -23 c-24 -26 -30 -51 -20 -89 16 -60
-28 -58 1052 -58 l985 0 0 -85 0 -85 -1465 0 -1466 0 -24 -25 c-25 -24 -32
-65 -19 -100 18 -47 -33 -45 1519 -45 l1455 0 0 -85 0 -85 -1768 0 c-1922 0
-1820 -3 -1930 55 -148 77 -230 228 -219 401 11 177 119 316 292 376 47 16
168 17 1838 18 l1787 0 0 -85z"/>
<path d="M2880 3924 c-517 -147 -619 -179 -637 -200 l-23 -25 0 -591 c0 -527
-2 -590 -15 -584 -121 46 -212 45 -311 -4 -113 -55 -174 -151 -182 -285 -3
-65 0 -91 18 -137 28 -75 96 -150 168 -185 50 -25 68 -28 152 -28 84 0 101 3
148 28 70 37 128 97 161 166 l26 56 3 565 3 565 487 138 c268 76 497 141 510
144 l22 5 0 -347 c0 -273 -3 -346 -12 -341 -153 63 -295 39 -398 -70 -72 -76
-93 -129 -94 -234 0 -73 4 -93 27 -141 32 -67 108 -142 175 -172 70 -33 208
-31 277 3 74 36 148 114 173 183 22 57 22 64 22 836 l0 778 -22 20 c-13 11
-32 23 -43 26 -11 4 -287 -70 -635 -169z m530 -108 l0 -83 -442 -127 c-244
-69 -473 -135 -510 -145 l-68 -20 0 82 0 82 508 146 c279 81 508 147 510 148
1 0 2 -37 2 -83z m-90 -1106 c61 -31 85 -73 85 -150 0 -77 -24 -119 -85 -150
-163 -83 -326 121 -207 257 56 64 134 80 207 43z m-1207 -334 c77 -32 124
-131 98 -208 -47 -143 -251 -159 -315 -25 -66 139 76 292 217 233z"/>
</g>
</svg>
